<?xml version="1.0" encoding="UTF-8"?>
<svg width="150px" height="150px" viewBox="0 0 150 150" version="1.1" xmlns="http://www.w3.org/2000/svg" xmlns:xlink="http://www.w3.org/1999/xlink">
    <title>isometric-cube 2</title>
    <g id="isometric-cube-2" stroke="none" stroke-width="1" fill="none" fill-rule="evenodd">
        <polygon id="Path" stroke-opacity="0.5" stroke="#979797" stroke-width="0.5" stroke-linecap="round" points="-2.27682456e-14 37.5 75 5.27355937e-16 150 37.5 75 75"></polygon>
        <polygon id="Path" stroke-opacity="0.5" stroke="#979797" stroke-width="0.5" stroke-linecap="round" points="-2.27682456e-14 112.5 75 75 150 112.5 75 150"></polygon>
        <g id="isometric-boxes-copy" transform="translate(15.000000, 15.000000)">
            <g id="right" transform="translate(60.000000, 30.000000)" fill="#DBDBDC">
                <path d="M1.4472136,89.2763932 L59.4472136,60.2763932 C59.7859976,60.1070012 60,59.7607381 60,59.381966 L60,1.61803399 C60,1.06574924 59.5522847,0.618033989 59,0.618033989 C58.8447549,0.618033989 58.6916418,0.654179081 58.5527864,0.723606798 L0.552786405,29.7236068 C0.214002376,29.8929988 6.19747616e-16,30.2392619 0,30.618034 L0,88.381966 C1.10246982e-14,88.9342508 0.44771525,89.381966 1,89.381966 C1.1552451,89.381966 1.30835816,89.3458209 1.4472136,89.2763932 Z"></path>
            </g>
            <g id="left" transform="translate(0.000000, 30.000000)" fill="#B6B8C2" stroke="#979797">
                <path d="M58.5527864,89.2763932 L0.552786405,60.2763932 C0.214002376,60.1070012 -1.17485913e-15,59.7607381 0,59.381966 L0,1.61803399 C-4.00702282e-16,1.06574924 0.44771525,0.618033989 1,0.618033989 C1.1552451,0.618033989 1.30835816,0.654179081 1.4472136,0.723606798 L59.4472136,29.7236068 C59.7859976,29.8929988 60,30.2392619 60,30.618034 L60,88.381966 C60,88.9342508 59.5522847,89.381966 59,89.381966 C58.8447549,89.381966 58.6916418,89.3458209 58.5527864,89.2763932 Z"></path>
            </g>
            <g id="top" fill="#F2F2F3" stroke="#979797">
                <path d="M1.78885438,29.1055728 L59.5527864,0.223606798 C59.8343139,0.0828430524 60.1656861,0.0828430524 60.4472136,0.223606798 L118.211146,29.1055728 C118.705124,29.3525621 118.905348,29.9532351 118.658359,30.4472136 C118.561596,30.640741 118.404673,30.7976635 118.211146,30.8944272 L60.4472136,59.7763932 C60.1656861,59.9171569 59.8343139,59.9171569 59.5527864,59.7763932 L1.78885438,30.8944272 C1.29487588,30.6474379 1.09465154,30.0467649 1.34164079,29.5527864 C1.43840449,29.359259 1.59532698,29.2023365 1.78885438,29.1055728 Z"></path>
            </g>
            <g id="cover" stroke="#979797">
                <path d="M1.10557281,29.4472136 L59.1055728,0.447213595 C59.6686278,0.165686105 60.3313722,0.165686105 60.8944272,0.447213595 L118.894427,29.4472136 C119.571995,29.7859976 120,30.4785239 120,31.236068 L120,88.763932 C120,89.5214761 119.571995,90.2140024 118.894427,90.5527864 L60.8944272,119.552786 C60.3313722,119.834314 59.6686278,119.834314 59.1055728,119.552786 L1.10557281,90.5527864 C0.428004752,90.2140024 -2.34971826e-15,89.5214761 0,88.763932 L0,31.236068 C3.51316812e-16,30.4785239 0.428004752,29.7859976 1.10557281,29.4472136 Z" id="Path-4"></path>
            </g>
        </g>
    </g>
</svg>