<?xml version="1.0" encoding="UTF-8"?>
<svg width="150px" height="150px" viewBox="0 0 150 150" version="1.1" xmlns="http://www.w3.org/2000/svg" xmlns:xlink="http://www.w3.org/1999/xlink">
    <title>isometric-cube-10</title>
    <g id="isometric-cube-10" stroke="none" stroke-width="1" fill="none" fill-rule="evenodd">
        <polygon id="Path" stroke-opacity="0.5" stroke="#979797" stroke-width="0.5" stroke-linecap="round" points="-2.27682456e-14 37.5 75 5.27355937e-16 150 37.5 75 75"></polygon>
        <polygon id="Path" stroke-opacity="0.5" stroke="#979797" stroke-width="0.5" stroke-linecap="round" points="-2.27682456e-14 112.5 75 75 150 112.5 75 150"></polygon>
        <g id="bottom" transform="translate(15.000000, 60.000000)" stroke="#979797">
            <g id="base-4" transform="translate(30.000000, 0.000000)">
                <g id="isometric-box-copy-3">
                    <g id="right" transform="translate(30.000000, 15.000000)" fill="#DBDBDC">
                        <path d="M1.4472136,29.2763932 L29.4472136,15.2763932 C29.7859976,15.1070012 30,14.7607381 30,14.381966 L30,1.61803399 C30,1.06574924 29.5522847,0.618033989 29,0.618033989 C28.8447549,0.618033989 28.6916418,0.654179081 28.5527864,0.723606798 L0.552786405,14.7236068 C0.214002376,14.8929988 -2.68430804e-16,15.2392619 0,15.618034 L0,28.381966 C2.73217063e-15,28.9342508 0.44771525,29.381966 1,29.381966 C1.1552451,29.381966 1.30835816,29.3458209 1.4472136,29.2763932 Z"></path>
                    </g>
                    <g id="left" transform="translate(0.000000, 15.000000)" fill="#B6B8C2">
                        <path d="M28.5527864,29.2763932 L0.552786405,15.2763932 C0.214002376,15.1070012 -1.75658406e-16,14.7607381 0,14.381966 L0,1.61803399 C3.76453835e-16,1.06574924 0.44771525,0.618033989 1,0.618033989 C1.1552451,0.618033989 1.30835816,0.654179081 1.4472136,0.723606798 L29.4472136,14.7236068 C29.7859976,14.8929988 30,15.2392619 30,15.618034 L30,28.381966 C30,28.9342508 29.5522847,29.381966 29,29.381966 C28.8447549,29.381966 28.6916418,29.3458209 28.5527864,29.2763932 Z"></path>
                    </g>
                    <g id="top" transform="translate(0.000000, 0.000000)" fill="#F2F2F3">
                        <path d="M1.78885438,14.1055728 L29.5527864,0.223606798 C29.8343139,0.0828430524 30.1656861,0.0828430524 30.4472136,0.223606798 L58.2111456,14.1055728 C58.7051241,14.3525621 58.9053485,14.9532351 58.6583592,15.4472136 C58.5615955,15.640741 58.404673,15.7976635 58.2111456,15.8944272 L30.4472136,29.7763932 C30.1656861,29.9171569 29.8343139,29.9171569 29.5527864,29.7763932 L1.78885438,15.8944272 C1.29487588,15.6474379 1.09465154,15.0467649 1.34164079,14.5527864 C1.43840449,14.359259 1.59532698,14.2023365 1.78885438,14.1055728 Z"></path>
                    </g>
                </g>
                <g id="cover">
                    <path d="M1.10557281,14.4472136 L29.1055728,0.447213595 C29.6686278,0.165686105 30.3313722,0.165686105 30.8944272,0.447213595 L58.8944272,14.4472136 C59.5719952,14.7859976 60,15.4785239 60,16.236068 L60,28.763932 C60,29.5214761 59.5719952,30.2140024 58.8944272,30.5527864 L30.8944272,44.5527864 C30.3313722,44.8343139 29.6686278,44.8343139 29.1055728,44.5527864 L1.10557281,30.5527864 C0.428004752,30.2140024 -3.51316812e-16,29.5214761 0,28.763932 L0,16.236068 C-5.36861608e-16,15.4785239 0.428004752,14.7859976 1.10557281,14.4472136 Z" id="Path-4"></path>
                </g>
            </g>
            <g id="base-3" transform="translate(60.000000, 15.000000)">
                <g id="isometric-box-copy-4">
                    <g id="right" transform="translate(30.000000, 15.000000)" fill="#DBDBDC">
                        <path d="M1.4472136,29.2763932 L29.4472136,15.2763932 C29.7859976,15.1070012 30,14.7607381 30,14.381966 L30,1.61803399 C30,1.06574924 29.5522847,0.618033989 29,0.618033989 C28.8447549,0.618033989 28.6916418,0.654179081 28.5527864,0.723606798 L0.552786405,14.7236068 C0.214002376,14.8929988 -2.68430804e-16,15.2392619 0,15.618034 L0,28.381966 C2.73217063e-15,28.9342508 0.44771525,29.381966 1,29.381966 C1.1552451,29.381966 1.30835816,29.3458209 1.4472136,29.2763932 Z"></path>
                    </g>
                    <g id="left" transform="translate(0.000000, 15.000000)" fill="#B6B8C2">
                        <path d="M28.5527864,29.2763932 L0.552786405,15.2763932 C0.214002376,15.1070012 -1.75658406e-16,14.7607381 0,14.381966 L0,1.61803399 C3.76453835e-16,1.06574924 0.44771525,0.618033989 1,0.618033989 C1.1552451,0.618033989 1.30835816,0.654179081 1.4472136,0.723606798 L29.4472136,14.7236068 C29.7859976,14.8929988 30,15.2392619 30,15.618034 L30,28.381966 C30,28.9342508 29.5522847,29.381966 29,29.381966 C28.8447549,29.381966 28.6916418,29.3458209 28.5527864,29.2763932 Z"></path>
                    </g>
                    <g id="top" transform="translate(0.000000, 0.000000)" fill="#F2F2F3">
                        <path d="M1.78885438,14.1055728 L29.5527864,0.223606798 C29.8343139,0.0828430524 30.1656861,0.0828430524 30.4472136,0.223606798 L58.2111456,14.1055728 C58.7051241,14.3525621 58.9053485,14.9532351 58.6583592,15.4472136 C58.5615955,15.640741 58.404673,15.7976635 58.2111456,15.8944272 L30.4472136,29.7763932 C30.1656861,29.9171569 29.8343139,29.9171569 29.5527864,29.7763932 L1.78885438,15.8944272 C1.29487588,15.6474379 1.09465154,15.0467649 1.34164079,14.5527864 C1.43840449,14.359259 1.59532698,14.2023365 1.78885438,14.1055728 Z"></path>
                    </g>
                </g>
                <g id="cover">
                    <path d="M1.10557281,14.4472136 L29.1055728,0.447213595 C29.6686278,0.165686105 30.3313722,0.165686105 30.8944272,0.447213595 L58.8944272,14.4472136 C59.5719952,14.7859976 60,15.4785239 60,16.236068 L60,28.763932 C60,29.5214761 59.5719952,30.2140024 58.8944272,30.5527864 L30.8944272,44.5527864 C30.3313722,44.8343139 29.6686278,44.8343139 29.1055728,44.5527864 L1.10557281,30.5527864 C0.428004752,30.2140024 -3.51316812e-16,29.5214761 0,28.763932 L0,16.236068 C-5.36861608e-16,15.4785239 0.428004752,14.7859976 1.10557281,14.4472136 Z" id="Path-4"></path>
                </g>
            </g>
            <g id="base-2" transform="translate(0.000000, 15.000000)">
                <g id="isometric-box">
                    <g id="right" transform="translate(30.000000, 15.000000)" fill="#DBDBDC">
                        <path d="M1.4472136,29.2763932 L29.4472136,15.2763932 C29.7859976,15.1070012 30,14.7607381 30,14.381966 L30,1.61803399 C30,1.06574924 29.5522847,0.618033989 29,0.618033989 C28.8447549,0.618033989 28.6916418,0.654179081 28.5527864,0.723606798 L0.552786405,14.7236068 C0.214002376,14.8929988 -2.68430804e-16,15.2392619 0,15.618034 L0,28.381966 C2.73217063e-15,28.9342508 0.44771525,29.381966 1,29.381966 C1.1552451,29.381966 1.30835816,29.3458209 1.4472136,29.2763932 Z"></path>
                    </g>
                    <g id="left" transform="translate(0.000000, 15.000000)" fill="#B6B8C2">
                        <path d="M28.5527864,29.2763932 L0.552786405,15.2763932 C0.214002376,15.1070012 -1.75658406e-16,14.7607381 0,14.381966 L0,1.61803399 C3.76453835e-16,1.06574924 0.44771525,0.618033989 1,0.618033989 C1.1552451,0.618033989 1.30835816,0.654179081 1.4472136,0.723606798 L29.4472136,14.7236068 C29.7859976,14.8929988 30,15.2392619 30,15.618034 L30,28.381966 C30,28.9342508 29.5522847,29.381966 29,29.381966 C28.8447549,29.381966 28.6916418,29.3458209 28.5527864,29.2763932 Z"></path>
                    </g>
                    <g id="top" transform="translate(0.000000, 0.000000)" fill="#F2F2F3">
                        <path d="M1.78885438,14.1055728 L29.5527864,0.223606798 C29.8343139,0.0828430524 30.1656861,0.0828430524 30.4472136,0.223606798 L58.2111456,14.1055728 C58.7051241,14.3525621 58.9053485,14.9532351 58.6583592,15.4472136 C58.5615955,15.640741 58.404673,15.7976635 58.2111456,15.8944272 L30.4472136,29.7763932 C30.1656861,29.9171569 29.8343139,29.9171569 29.5527864,29.7763932 L1.78885438,15.8944272 C1.29487588,15.6474379 1.09465154,15.0467649 1.34164079,14.5527864 C1.43840449,14.359259 1.59532698,14.2023365 1.78885438,14.1055728 Z"></path>
                    </g>
                </g>
                <g id="cover">
                    <path d="M1.10557281,14.4472136 L29.1055728,0.447213595 C29.6686278,0.165686105 30.3313722,0.165686105 30.8944272,0.447213595 L58.8944272,14.4472136 C59.5719952,14.7859976 60,15.4785239 60,16.236068 L60,28.763932 C60,29.5214761 59.5719952,30.2140024 58.8944272,30.5527864 L30.8944272,44.5527864 C30.3313722,44.8343139 29.6686278,44.8343139 29.1055728,44.5527864 L1.10557281,30.5527864 C0.428004752,30.2140024 -3.51316812e-16,29.5214761 0,28.763932 L0,16.236068 C-5.36861608e-16,15.4785239 0.428004752,14.7859976 1.10557281,14.4472136 Z" id="Path-4"></path>
                </g>
            </g>
            <g id="base-1" transform="translate(30.000000, 30.000000)">
                <g id="isometric-box-copy">
                    <g id="right" transform="translate(30.000000, 15.000000)" fill="#DBDBDC">
                        <path d="M1.4472136,29.2763932 L29.4472136,15.2763932 C29.7859976,15.1070012 30,14.7607381 30,14.381966 L30,1.61803399 C30,1.06574924 29.5522847,0.618033989 29,0.618033989 C28.8447549,0.618033989 28.6916418,0.654179081 28.5527864,0.723606798 L0.552786405,14.7236068 C0.214002376,14.8929988 -2.68430804e-16,15.2392619 0,15.618034 L0,28.381966 C2.73217063e-15,28.9342508 0.44771525,29.381966 1,29.381966 C1.1552451,29.381966 1.30835816,29.3458209 1.4472136,29.2763932 Z"></path>
                    </g>
                    <g id="left" transform="translate(0.000000, 15.000000)" fill="#B6B8C2">
                        <path d="M28.5527864,29.2763932 L0.552786405,15.2763932 C0.214002376,15.1070012 -1.75658406e-16,14.7607381 0,14.381966 L0,1.61803399 C3.76453835e-16,1.06574924 0.44771525,0.618033989 1,0.618033989 C1.1552451,0.618033989 1.30835816,0.654179081 1.4472136,0.723606798 L29.4472136,14.7236068 C29.7859976,14.8929988 30,15.2392619 30,15.618034 L30,28.381966 C30,28.9342508 29.5522847,29.381966 29,29.381966 C28.8447549,29.381966 28.6916418,29.3458209 28.5527864,29.2763932 Z"></path>
                    </g>
                    <g id="top" transform="translate(0.000000, 0.000000)" fill="#F2F2F3">
                        <path d="M1.78885438,14.1055728 L29.5527864,0.223606798 C29.8343139,0.0828430524 30.1656861,0.0828430524 30.4472136,0.223606798 L58.2111456,14.1055728 C58.7051241,14.3525621 58.9053485,14.9532351 58.6583592,15.4472136 C58.5615955,15.640741 58.404673,15.7976635 58.2111456,15.8944272 L30.4472136,29.7763932 C30.1656861,29.9171569 29.8343139,29.9171569 29.5527864,29.7763932 L1.78885438,15.8944272 C1.29487588,15.6474379 1.09465154,15.0467649 1.34164079,14.5527864 C1.43840449,14.359259 1.59532698,14.2023365 1.78885438,14.1055728 Z"></path>
                    </g>
                </g>
                <g id="cover">
                    <path d="M1.10557281,14.4472136 L29.1055728,0.447213595 C29.6686278,0.165686105 30.3313722,0.165686105 30.8944272,0.447213595 L58.8944272,14.4472136 C59.5719952,14.7859976 60,15.4785239 60,16.236068 L60,28.763932 C60,29.5214761 59.5719952,30.2140024 58.8944272,30.5527864 L30.8944272,44.5527864 C30.3313722,44.8343139 29.6686278,44.8343139 29.1055728,44.5527864 L1.10557281,30.5527864 C0.428004752,30.2140024 -3.51316812e-16,29.5214761 0,28.763932 L0,16.236068 C-5.36861608e-16,15.4785239 0.428004752,14.7859976 1.10557281,14.4472136 Z" id="Path-4"></path>
                </g>
            </g>
        </g>
        <g id="middle" transform="translate(15.000000, 38.000000)" stroke="#979797">
            <g id="base-4" transform="translate(30.000000, 0.000000)">
                <g id="isometric-box-copy-8">
                    <g id="right" transform="translate(30.000000, 15.000000)" fill="#DBDBDC">
                        <path d="M1.4472136,29.2763932 L29.4472136,15.2763932 C29.7859976,15.1070012 30,14.7607381 30,14.381966 L30,1.61803399 C30,1.06574924 29.5522847,0.618033989 29,0.618033989 C28.8447549,0.618033989 28.6916418,0.654179081 28.5527864,0.723606798 L0.552786405,14.7236068 C0.214002376,14.8929988 -2.68430804e-16,15.2392619 0,15.618034 L0,28.381966 C2.73217063e-15,28.9342508 0.44771525,29.381966 1,29.381966 C1.1552451,29.381966 1.30835816,29.3458209 1.4472136,29.2763932 Z"></path>
                    </g>
                    <g id="left" transform="translate(0.000000, 15.000000)" fill="#B6B8C2">
                        <path d="M28.5527864,29.2763932 L0.552786405,15.2763932 C0.214002376,15.1070012 -1.75658406e-16,14.7607381 0,14.381966 L0,1.61803399 C3.76453835e-16,1.06574924 0.44771525,0.618033989 1,0.618033989 C1.1552451,0.618033989 1.30835816,0.654179081 1.4472136,0.723606798 L29.4472136,14.7236068 C29.7859976,14.8929988 30,15.2392619 30,15.618034 L30,28.381966 C30,28.9342508 29.5522847,29.381966 29,29.381966 C28.8447549,29.381966 28.6916418,29.3458209 28.5527864,29.2763932 Z"></path>
                    </g>
                    <g id="top" transform="translate(0.000000, 0.000000)" fill="#F2F2F3">
                        <path d="M1.78885438,14.1055728 L29.5527864,0.223606798 C29.8343139,0.0828430524 30.1656861,0.0828430524 30.4472136,0.223606798 L58.2111456,14.1055728 C58.7051241,14.3525621 58.9053485,14.9532351 58.6583592,15.4472136 C58.5615955,15.640741 58.404673,15.7976635 58.2111456,15.8944272 L30.4472136,29.7763932 C30.1656861,29.9171569 29.8343139,29.9171569 29.5527864,29.7763932 L1.78885438,15.8944272 C1.29487588,15.6474379 1.09465154,15.0467649 1.34164079,14.5527864 C1.43840449,14.359259 1.59532698,14.2023365 1.78885438,14.1055728 Z"></path>
                    </g>
                </g>
                <g id="cover">
                    <path d="M1.10557281,14.4472136 L29.1055728,0.447213595 C29.6686278,0.165686105 30.3313722,0.165686105 30.8944272,0.447213595 L58.8944272,14.4472136 C59.5719952,14.7859976 60,15.4785239 60,16.236068 L60,28.763932 C60,29.5214761 59.5719952,30.2140024 58.8944272,30.5527864 L30.8944272,44.5527864 C30.3313722,44.8343139 29.6686278,44.8343139 29.1055728,44.5527864 L1.10557281,30.5527864 C0.428004752,30.2140024 -3.51316812e-16,29.5214761 0,28.763932 L0,16.236068 C-5.36861608e-16,15.4785239 0.428004752,14.7859976 1.10557281,14.4472136 Z" id="Path-4"></path>
                </g>
            </g>
            <g id="base-3" transform="translate(60.000000, 15.000000)">
                <g id="isometric-box-copy-9">
                    <g id="right" transform="translate(30.000000, 15.000000)" fill="#DBDBDC">
                        <path d="M1.4472136,29.2763932 L29.4472136,15.2763932 C29.7859976,15.1070012 30,14.7607381 30,14.381966 L30,1.61803399 C30,1.06574924 29.5522847,0.618033989 29,0.618033989 C28.8447549,0.618033989 28.6916418,0.654179081 28.5527864,0.723606798 L0.552786405,14.7236068 C0.214002376,14.8929988 -2.68430804e-16,15.2392619 0,15.618034 L0,28.381966 C2.73217063e-15,28.9342508 0.44771525,29.381966 1,29.381966 C1.1552451,29.381966 1.30835816,29.3458209 1.4472136,29.2763932 Z"></path>
                    </g>
                    <g id="left" transform="translate(0.000000, 15.000000)" fill="#B6B8C2">
                        <path d="M28.5527864,29.2763932 L0.552786405,15.2763932 C0.214002376,15.1070012 -1.75658406e-16,14.7607381 0,14.381966 L0,1.61803399 C3.76453835e-16,1.06574924 0.44771525,0.618033989 1,0.618033989 C1.1552451,0.618033989 1.30835816,0.654179081 1.4472136,0.723606798 L29.4472136,14.7236068 C29.7859976,14.8929988 30,15.2392619 30,15.618034 L30,28.381966 C30,28.9342508 29.5522847,29.381966 29,29.381966 C28.8447549,29.381966 28.6916418,29.3458209 28.5527864,29.2763932 Z"></path>
                    </g>
                    <g id="top" transform="translate(0.000000, 0.000000)" fill="#F2F2F3">
                        <path d="M1.78885438,14.1055728 L29.5527864,0.223606798 C29.8343139,0.0828430524 30.1656861,0.0828430524 30.4472136,0.223606798 L58.2111456,14.1055728 C58.7051241,14.3525621 58.9053485,14.9532351 58.6583592,15.4472136 C58.5615955,15.640741 58.404673,15.7976635 58.2111456,15.8944272 L30.4472136,29.7763932 C30.1656861,29.9171569 29.8343139,29.9171569 29.5527864,29.7763932 L1.78885438,15.8944272 C1.29487588,15.6474379 1.09465154,15.0467649 1.34164079,14.5527864 C1.43840449,14.359259 1.59532698,14.2023365 1.78885438,14.1055728 Z"></path>
                    </g>
                </g>
                <g id="cover">
                    <path d="M1.10557281,14.4472136 L29.1055728,0.447213595 C29.6686278,0.165686105 30.3313722,0.165686105 30.8944272,0.447213595 L58.8944272,14.4472136 C59.5719952,14.7859976 60,15.4785239 60,16.236068 L60,28.763932 C60,29.5214761 59.5719952,30.2140024 58.8944272,30.5527864 L30.8944272,44.5527864 C30.3313722,44.8343139 29.6686278,44.8343139 29.1055728,44.5527864 L1.10557281,30.5527864 C0.428004752,30.2140024 -3.51316812e-16,29.5214761 0,28.763932 L0,16.236068 C-5.36861608e-16,15.4785239 0.428004752,14.7859976 1.10557281,14.4472136 Z" id="Path-4"></path>
                </g>
            </g>
            <g id="base-2" transform="translate(0.000000, 15.000000)">
                <g id="isometric-box-copy-10">
                    <g id="right" transform="translate(30.000000, 15.000000)" fill="#DBDBDC">
                        <path d="M1.4472136,29.2763932 L29.4472136,15.2763932 C29.7859976,15.1070012 30,14.7607381 30,14.381966 L30,1.61803399 C30,1.06574924 29.5522847,0.618033989 29,0.618033989 C28.8447549,0.618033989 28.6916418,0.654179081 28.5527864,0.723606798 L0.552786405,14.7236068 C0.214002376,14.8929988 -2.68430804e-16,15.2392619 0,15.618034 L0,28.381966 C2.73217063e-15,28.9342508 0.44771525,29.381966 1,29.381966 C1.1552451,29.381966 1.30835816,29.3458209 1.4472136,29.2763932 Z"></path>
                    </g>
                    <g id="left" transform="translate(0.000000, 15.000000)" fill="#B6B8C2">
                        <path d="M28.5527864,29.2763932 L0.552786405,15.2763932 C0.214002376,15.1070012 -1.75658406e-16,14.7607381 0,14.381966 L0,1.61803399 C3.76453835e-16,1.06574924 0.44771525,0.618033989 1,0.618033989 C1.1552451,0.618033989 1.30835816,0.654179081 1.4472136,0.723606798 L29.4472136,14.7236068 C29.7859976,14.8929988 30,15.2392619 30,15.618034 L30,28.381966 C30,28.9342508 29.5522847,29.381966 29,29.381966 C28.8447549,29.381966 28.6916418,29.3458209 28.5527864,29.2763932 Z"></path>
                    </g>
                    <g id="top" transform="translate(0.000000, 0.000000)" fill="#F2F2F3">
                        <path d="M1.78885438,14.1055728 L29.5527864,0.223606798 C29.8343139,0.0828430524 30.1656861,0.0828430524 30.4472136,0.223606798 L58.2111456,14.1055728 C58.7051241,14.3525621 58.9053485,14.9532351 58.6583592,15.4472136 C58.5615955,15.640741 58.404673,15.7976635 58.2111456,15.8944272 L30.4472136,29.7763932 C30.1656861,29.9171569 29.8343139,29.9171569 29.5527864,29.7763932 L1.78885438,15.8944272 C1.29487588,15.6474379 1.09465154,15.0467649 1.34164079,14.5527864 C1.43840449,14.359259 1.59532698,14.2023365 1.78885438,14.1055728 Z"></path>
                    </g>
                </g>
                <g id="cover">
                    <path d="M1.10557281,14.4472136 L29.1055728,0.447213595 C29.6686278,0.165686105 30.3313722,0.165686105 30.8944272,0.447213595 L58.8944272,14.4472136 C59.5719952,14.7859976 60,15.4785239 60,16.236068 L60,28.763932 C60,29.5214761 59.5719952,30.2140024 58.8944272,30.5527864 L30.8944272,44.5527864 C30.3313722,44.8343139 29.6686278,44.8343139 29.1055728,44.5527864 L1.10557281,30.5527864 C0.428004752,30.2140024 -3.51316812e-16,29.5214761 0,28.763932 L0,16.236068 C-5.36861608e-16,15.4785239 0.428004752,14.7859976 1.10557281,14.4472136 Z" id="Path-4"></path>
                </g>
            </g>
            <g id="base-1" transform="translate(30.000000, 30.000000)">
                <g id="isometric-box-copy-11">
                    <g id="right" transform="translate(30.000000, 15.000000)" fill="#DBDBDC">
                        <path d="M1.4472136,29.2763932 L29.4472136,15.2763932 C29.7859976,15.1070012 30,14.7607381 30,14.381966 L30,1.61803399 C30,1.06574924 29.5522847,0.618033989 29,0.618033989 C28.8447549,0.618033989 28.6916418,0.654179081 28.5527864,0.723606798 L0.552786405,14.7236068 C0.214002376,14.8929988 -2.68430804e-16,15.2392619 0,15.618034 L0,28.381966 C2.73217063e-15,28.9342508 0.44771525,29.381966 1,29.381966 C1.1552451,29.381966 1.30835816,29.3458209 1.4472136,29.2763932 Z"></path>
                    </g>
                    <g id="left" transform="translate(0.000000, 15.000000)" fill="#B6B8C2">
                        <path d="M28.5527864,29.2763932 L0.552786405,15.2763932 C0.214002376,15.1070012 -1.75658406e-16,14.7607381 0,14.381966 L0,1.61803399 C3.76453835e-16,1.06574924 0.44771525,0.618033989 1,0.618033989 C1.1552451,0.618033989 1.30835816,0.654179081 1.4472136,0.723606798 L29.4472136,14.7236068 C29.7859976,14.8929988 30,15.2392619 30,15.618034 L30,28.381966 C30,28.9342508 29.5522847,29.381966 29,29.381966 C28.8447549,29.381966 28.6916418,29.3458209 28.5527864,29.2763932 Z"></path>
                    </g>
                    <g id="top" transform="translate(0.000000, 0.000000)" fill="#F2F2F3">
                        <path d="M1.78885438,14.1055728 L29.5527864,0.223606798 C29.8343139,0.0828430524 30.1656861,0.0828430524 30.4472136,0.223606798 L58.2111456,14.1055728 C58.7051241,14.3525621 58.9053485,14.9532351 58.6583592,15.4472136 C58.5615955,15.640741 58.404673,15.7976635 58.2111456,15.8944272 L30.4472136,29.7763932 C30.1656861,29.9171569 29.8343139,29.9171569 29.5527864,29.7763932 L1.78885438,15.8944272 C1.29487588,15.6474379 1.09465154,15.0467649 1.34164079,14.5527864 C1.43840449,14.359259 1.59532698,14.2023365 1.78885438,14.1055728 Z"></path>
                    </g>
                </g>
                <g id="cover">
                    <path d="M1.10557281,14.4472136 L29.1055728,0.447213595 C29.6686278,0.165686105 30.3313722,0.165686105 30.8944272,0.447213595 L58.8944272,14.4472136 C59.5719952,14.7859976 60,15.4785239 60,16.236068 L60,28.763932 C60,29.5214761 59.5719952,30.2140024 58.8944272,30.5527864 L30.8944272,44.5527864 C30.3313722,44.8343139 29.6686278,44.8343139 29.1055728,44.5527864 L1.10557281,30.5527864 C0.428004752,30.2140024 -3.51316812e-16,29.5214761 0,28.763932 L0,16.236068 C-5.36861608e-16,15.4785239 0.428004752,14.7859976 1.10557281,14.4472136 Z" id="Path-4"></path>
                </g>
            </g>
        </g>
        <g id="top" transform="translate(15.000000, 15.000000)" stroke="#979797">
            <g id="base-4" transform="translate(30.000000, 0.000000)">
                <g id="isometric-box-copy-5">
                    <g id="right" transform="translate(30.000000, 15.000000)" fill="#DBDBDC">
                        <path d="M1.4472136,29.2763932 L29.4472136,15.2763932 C29.7859976,15.1070012 30,14.7607381 30,14.381966 L30,1.61803399 C30,1.06574924 29.5522847,0.618033989 29,0.618033989 C28.8447549,0.618033989 28.6916418,0.654179081 28.5527864,0.723606798 L0.552786405,14.7236068 C0.214002376,14.8929988 -2.68430804e-16,15.2392619 0,15.618034 L0,28.381966 C2.73217063e-15,28.9342508 0.44771525,29.381966 1,29.381966 C1.1552451,29.381966 1.30835816,29.3458209 1.4472136,29.2763932 Z"></path>
                    </g>
                    <g id="left" transform="translate(0.000000, 15.000000)" fill="#B6B8C2">
                        <path d="M28.5527864,29.2763932 L0.552786405,15.2763932 C0.214002376,15.1070012 -1.75658406e-16,14.7607381 0,14.381966 L0,1.61803399 C3.76453835e-16,1.06574924 0.44771525,0.618033989 1,0.618033989 C1.1552451,0.618033989 1.30835816,0.654179081 1.4472136,0.723606798 L29.4472136,14.7236068 C29.7859976,14.8929988 30,15.2392619 30,15.618034 L30,28.381966 C30,28.9342508 29.5522847,29.381966 29,29.381966 C28.8447549,29.381966 28.6916418,29.3458209 28.5527864,29.2763932 Z"></path>
                    </g>
                    <g id="top" transform="translate(0.000000, 0.000000)" fill="#F2F2F3">
                        <path d="M1.78885438,14.1055728 L29.5527864,0.223606798 C29.8343139,0.0828430524 30.1656861,0.0828430524 30.4472136,0.223606798 L58.2111456,14.1055728 C58.7051241,14.3525621 58.9053485,14.9532351 58.6583592,15.4472136 C58.5615955,15.640741 58.404673,15.7976635 58.2111456,15.8944272 L30.4472136,29.7763932 C30.1656861,29.9171569 29.8343139,29.9171569 29.5527864,29.7763932 L1.78885438,15.8944272 C1.29487588,15.6474379 1.09465154,15.0467649 1.34164079,14.5527864 C1.43840449,14.359259 1.59532698,14.2023365 1.78885438,14.1055728 Z"></path>
                    </g>
                </g>
                <g id="cover">
                    <path d="M1.10557281,14.4472136 L29.1055728,0.447213595 C29.6686278,0.165686105 30.3313722,0.165686105 30.8944272,0.447213595 L58.8944272,14.4472136 C59.5719952,14.7859976 60,15.4785239 60,16.236068 L60,28.763932 C60,29.5214761 59.5719952,30.2140024 58.8944272,30.5527864 L30.8944272,44.5527864 C30.3313722,44.8343139 29.6686278,44.8343139 29.1055728,44.5527864 L1.10557281,30.5527864 C0.428004752,30.2140024 -3.51316812e-16,29.5214761 0,28.763932 L0,16.236068 C-5.36861608e-16,15.4785239 0.428004752,14.7859976 1.10557281,14.4472136 Z" id="Path-4"></path>
                </g>
            </g>
            <g id="base-3" transform="translate(60.000000, 15.000000)">
                <g id="isometric-box-copy-6">
                    <g id="right" transform="translate(30.000000, 15.000000)" fill="#DBDBDC">
                        <path d="M1.4472136,29.2763932 L29.4472136,15.2763932 C29.7859976,15.1070012 30,14.7607381 30,14.381966 L30,1.61803399 C30,1.06574924 29.5522847,0.618033989 29,0.618033989 C28.8447549,0.618033989 28.6916418,0.654179081 28.5527864,0.723606798 L0.552786405,14.7236068 C0.214002376,14.8929988 -2.68430804e-16,15.2392619 0,15.618034 L0,28.381966 C2.73217063e-15,28.9342508 0.44771525,29.381966 1,29.381966 C1.1552451,29.381966 1.30835816,29.3458209 1.4472136,29.2763932 Z"></path>
                    </g>
                    <g id="left" transform="translate(0.000000, 15.000000)" fill="#B6B8C2">
                        <path d="M28.5527864,29.2763932 L0.552786405,15.2763932 C0.214002376,15.1070012 -1.75658406e-16,14.7607381 0,14.381966 L0,1.61803399 C3.76453835e-16,1.06574924 0.44771525,0.618033989 1,0.618033989 C1.1552451,0.618033989 1.30835816,0.654179081 1.4472136,0.723606798 L29.4472136,14.7236068 C29.7859976,14.8929988 30,15.2392619 30,15.618034 L30,28.381966 C30,28.9342508 29.5522847,29.381966 29,29.381966 C28.8447549,29.381966 28.6916418,29.3458209 28.5527864,29.2763932 Z"></path>
                    </g>
                    <g id="top" transform="translate(0.000000, 0.000000)" fill="#F2F2F3">
                        <path d="M1.78885438,14.1055728 L29.5527864,0.223606798 C29.8343139,0.0828430524 30.1656861,0.0828430524 30.4472136,0.223606798 L58.2111456,14.1055728 C58.7051241,14.3525621 58.9053485,14.9532351 58.6583592,15.4472136 C58.5615955,15.640741 58.404673,15.7976635 58.2111456,15.8944272 L30.4472136,29.7763932 C30.1656861,29.9171569 29.8343139,29.9171569 29.5527864,29.7763932 L1.78885438,15.8944272 C1.29487588,15.6474379 1.09465154,15.0467649 1.34164079,14.5527864 C1.43840449,14.359259 1.59532698,14.2023365 1.78885438,14.1055728 Z"></path>
                    </g>
                </g>
                <g id="cover">
                    <path d="M1.10557281,14.4472136 L29.1055728,0.447213595 C29.6686278,0.165686105 30.3313722,0.165686105 30.8944272,0.447213595 L58.8944272,14.4472136 C59.5719952,14.7859976 60,15.4785239 60,16.236068 L60,28.763932 C60,29.5214761 59.5719952,30.2140024 58.8944272,30.5527864 L30.8944272,44.5527864 C30.3313722,44.8343139 29.6686278,44.8343139 29.1055728,44.5527864 L1.10557281,30.5527864 C0.428004752,30.2140024 -3.51316812e-16,29.5214761 0,28.763932 L0,16.236068 C-5.36861608e-16,15.4785239 0.428004752,14.7859976 1.10557281,14.4472136 Z" id="Path-4"></path>
                </g>
            </g>
            <g id="base-2" transform="translate(0.000000, 15.000000)">
                <g id="isometric-box-copy-2">
                    <g id="right" transform="translate(30.000000, 15.000000)" fill="#DBDBDC">
                        <path d="M1.4472136,29.2763932 L29.4472136,15.2763932 C29.7859976,15.1070012 30,14.7607381 30,14.381966 L30,1.61803399 C30,1.06574924 29.5522847,0.618033989 29,0.618033989 C28.8447549,0.618033989 28.6916418,0.654179081 28.5527864,0.723606798 L0.552786405,14.7236068 C0.214002376,14.8929988 -2.68430804e-16,15.2392619 0,15.618034 L0,28.381966 C2.73217063e-15,28.9342508 0.44771525,29.381966 1,29.381966 C1.1552451,29.381966 1.30835816,29.3458209 1.4472136,29.2763932 Z"></path>
                    </g>
                    <g id="left" transform="translate(0.000000, 15.000000)" fill="#B6B8C2">
                        <path d="M28.5527864,29.2763932 L0.552786405,15.2763932 C0.214002376,15.1070012 -1.75658406e-16,14.7607381 0,14.381966 L0,1.61803399 C3.76453835e-16,1.06574924 0.44771525,0.618033989 1,0.618033989 C1.1552451,0.618033989 1.30835816,0.654179081 1.4472136,0.723606798 L29.4472136,14.7236068 C29.7859976,14.8929988 30,15.2392619 30,15.618034 L30,28.381966 C30,28.9342508 29.5522847,29.381966 29,29.381966 C28.8447549,29.381966 28.6916418,29.3458209 28.5527864,29.2763932 Z"></path>
                    </g>
                    <g id="top" transform="translate(0.000000, 0.000000)" fill="#F2F2F3">
                        <path d="M1.78885438,14.1055728 L29.5527864,0.223606798 C29.8343139,0.0828430524 30.1656861,0.0828430524 30.4472136,0.223606798 L58.2111456,14.1055728 C58.7051241,14.3525621 58.9053485,14.9532351 58.6583592,15.4472136 C58.5615955,15.640741 58.404673,15.7976635 58.2111456,15.8944272 L30.4472136,29.7763932 C30.1656861,29.9171569 29.8343139,29.9171569 29.5527864,29.7763932 L1.78885438,15.8944272 C1.29487588,15.6474379 1.09465154,15.0467649 1.34164079,14.5527864 C1.43840449,14.359259 1.59532698,14.2023365 1.78885438,14.1055728 Z"></path>
                    </g>
                </g>
                <g id="cover">
                    <path d="M1.10557281,14.4472136 L29.1055728,0.447213595 C29.6686278,0.165686105 30.3313722,0.165686105 30.8944272,0.447213595 L58.8944272,14.4472136 C59.5719952,14.7859976 60,15.4785239 60,16.236068 L60,28.763932 C60,29.5214761 59.5719952,30.2140024 58.8944272,30.5527864 L30.8944272,44.5527864 C30.3313722,44.8343139 29.6686278,44.8343139 29.1055728,44.5527864 L1.10557281,30.5527864 C0.428004752,30.2140024 -3.51316812e-16,29.5214761 0,28.763932 L0,16.236068 C-5.36861608e-16,15.4785239 0.428004752,14.7859976 1.10557281,14.4472136 Z" id="Path-4"></path>
                </g>
            </g>
            <g id="base-1" transform="translate(30.000000, 30.000000)">
                <g id="isometric-box-copy-7">
                    <g id="right" transform="translate(30.000000, 15.000000)" fill="#DBDBDC">
                        <path d="M1.4472136,29.2763932 L29.4472136,15.2763932 C29.7859976,15.1070012 30,14.7607381 30,14.381966 L30,1.61803399 C30,1.06574924 29.5522847,0.618033989 29,0.618033989 C28.8447549,0.618033989 28.6916418,0.654179081 28.5527864,0.723606798 L0.552786405,14.7236068 C0.214002376,14.8929988 -2.68430804e-16,15.2392619 0,15.618034 L0,28.381966 C2.73217063e-15,28.9342508 0.44771525,29.381966 1,29.381966 C1.1552451,29.381966 1.30835816,29.3458209 1.4472136,29.2763932 Z"></path>
                    </g>
                    <g id="left" transform="translate(0.000000, 15.000000)" fill="#B6B8C2">
                        <path d="M28.5527864,29.2763932 L0.552786405,15.2763932 C0.214002376,15.1070012 -1.75658406e-16,14.7607381 0,14.381966 L0,1.61803399 C3.76453835e-16,1.06574924 0.44771525,0.618033989 1,0.618033989 C1.1552451,0.618033989 1.30835816,0.654179081 1.4472136,0.723606798 L29.4472136,14.7236068 C29.7859976,14.8929988 30,15.2392619 30,15.618034 L30,28.381966 C30,28.9342508 29.5522847,29.381966 29,29.381966 C28.8447549,29.381966 28.6916418,29.3458209 28.5527864,29.2763932 Z"></path>
                    </g>
                    <g id="top" transform="translate(0.000000, 0.000000)" fill="#F2F2F3">
                        <path d="M1.78885438,14.1055728 L29.5527864,0.223606798 C29.8343139,0.0828430524 30.1656861,0.0828430524 30.4472136,0.223606798 L58.2111456,14.1055728 C58.7051241,14.3525621 58.9053485,14.9532351 58.6583592,15.4472136 C58.5615955,15.640741 58.404673,15.7976635 58.2111456,15.8944272 L30.4472136,29.7763932 C30.1656861,29.9171569 29.8343139,29.9171569 29.5527864,29.7763932 L1.78885438,15.8944272 C1.29487588,15.6474379 1.09465154,15.0467649 1.34164079,14.5527864 C1.43840449,14.359259 1.59532698,14.2023365 1.78885438,14.1055728 Z"></path>
                    </g>
                </g>
                <g id="cover">
                    <path d="M1.10557281,14.4472136 L29.1055728,0.447213595 C29.6686278,0.165686105 30.3313722,0.165686105 30.8944272,0.447213595 L58.8944272,14.4472136 C59.5719952,14.7859976 60,15.4785239 60,16.236068 L60,28.763932 C60,29.5214761 59.5719952,30.2140024 58.8944272,30.5527864 L30.8944272,44.5527864 C30.3313722,44.8343139 29.6686278,44.8343139 29.1055728,44.5527864 L1.10557281,30.5527864 C0.428004752,30.2140024 -3.51316812e-16,29.5214761 0,28.763932 L0,16.236068 C-5.36861608e-16,15.4785239 0.428004752,14.7859976 1.10557281,14.4472136 Z" id="Path-4"></path>
                </g>
            </g>
        </g>
    </g>
</svg>