<?xml version="1.0" encoding="UTF-8"?>
<svg width="150px" height="150px" viewBox="0 0 150 150" version="1.1" xmlns="http://www.w3.org/2000/svg"
    xmlns:xlink="http://www.w3.org/1999/xlink">
    <title>isometric-cube 12</title>
    <g id="isometric-cube-12" stroke="none" stroke-width="1" fill="none" fill-rule="evenodd">
        <polygon id="Path" stroke-opacity="0.5" stroke="#979797" stroke-width="0.5" stroke-linecap="round"
            points="-2.27682456e-14 112.5 75 75 150 112.5 75 150"></polygon>
        <polygon id="Path" stroke-opacity="0.5" stroke="#979797" stroke-width="0.5" stroke-linecap="round"
            points="-2.27682456e-14 37.5 75 5.27355937e-16 150 37.5 75 75"></polygon>
        <g id="base-3" transform="translate(15.000000, 60.000000)" stroke="#979797">
            <g id="isometric-box-copy-2">
                <g id="right" transform="translate(60.000000, 30.000000)" fill="#DBDBDC">
                    <path
                        d="M1.4472136,44.2763932 L59.4472136,15.2763932 C59.7859976,15.1070012 60,14.7607381 60,14.381966 L60,1.61803399 C60,1.06574924 59.5522847,0.618033989 59,0.618033989 C58.8447549,0.618033989 58.6916418,0.654179081 58.5527864,0.723606798 L0.552786405,29.7236068 C0.214002376,29.8929988 6.19747616e-16,30.2392619 0,30.618034 L0,43.381966 C-1.15360995e-15,43.9342508 0.44771525,44.381966 1,44.381966 C1.1552451,44.381966 1.30835816,44.3458209 1.4472136,44.2763932 Z">
                    </path>
                </g>
                <g id="left" transform="translate(0.000000, 30.000000)" fill="#B6B8C2">
                    <path
                        d="M58.5527864,44.2763932 L0.552786405,15.2763932 C0.214002376,15.1070012 -1.75658406e-16,14.7607381 0,14.381966 L0,1.61803399 C3.76453835e-16,1.06574924 0.44771525,0.618033989 1,0.618033989 C1.1552451,0.618033989 1.30835816,0.654179081 1.4472136,0.723606798 L59.4472136,29.7236068 C59.7859976,29.8929988 60,30.2392619 60,30.618034 L60,43.381966 C60,43.9342508 59.5522847,44.381966 59,44.381966 C58.8447549,44.381966 58.6916418,44.3458209 58.5527864,44.2763932 Z">
                    </path>
                </g>
                <g id="top" fill="#F2F2F3">
                    <path
                        d="M1.78885438,29.1055728 L59.5527864,0.223606798 C59.8343139,0.0828430524 60.1656861,0.0828430524 60.4472136,0.223606798 L118.211146,29.1055728 C118.705124,29.3525621 118.905348,29.9532351 118.658359,30.4472136 C118.561596,30.640741 118.404673,30.7976635 118.211146,30.8944272 L60.4472136,59.7763932 C60.1656861,59.9171569 59.8343139,59.9171569 59.5527864,59.7763932 L1.78885438,30.8944272 C1.29487588,30.6474379 1.09465154,30.0467649 1.34164079,29.5527864 C1.43840449,29.359259 1.59532698,29.2023365 1.78885438,29.1055728 Z">
                    </path>
                </g>
            </g>
            <g id="cover">
                <path
                    d="M1.10557281,29.4472136 L59.1055728,0.447213595 C59.6686278,0.165686105 60.3313722,0.165686105 60.8944272,0.447213595 L118.894427,29.4472136 C119.571995,29.7859976 120,30.4785239 120,31.236068 L120,43.763932 C120,44.5214761 119.571995,45.2140024 118.894427,45.5527864 L60.8944272,74.5527864 C60.3313722,74.8343139 59.6686278,74.8343139 59.1055728,74.5527864 L1.10557281,45.5527864 C0.428004752,45.2140024 1.42504003e-15,44.5214761 0,43.763932 L0,31.236068 C3.51316812e-16,30.4785239 0.428004752,29.7859976 1.10557281,29.4472136 Z"
                    id="Path-4"></path>
            </g>
        </g>
        <g id="base-2" transform="translate(31.000000, 37.000000)">
            <g id="isometric-box-copy">
                <g id="right" transform="translate(59.000000, 30.000000)" fill="#DBDBDC" stroke="#979797">
                    <path
                        d="M1.43921013,36.2963862 L44.4392101,15.2741639 C44.7823843,15.1063899 45,14.75777 45,14.3757796 L45,1.63491608 C45,1.08263133 44.5522847,0.634916079 44,0.634916079 C43.8416248,0.634916079 43.6855143,0.672532851 43.5445213,0.744669373 L0.544521347,22.744843 C0.210289179,22.9158468 -9.3571127e-16,23.259652 0,23.6350897 L0,35.3980018 C1.62194761e-15,35.9502865 0.44771525,36.3980018 1,36.3980018 C1.15222942,36.3980018 1.30244961,36.3632469 1.43921013,36.2963862 Z">
                    </path>
                </g>
                <path
                    d="M57.5588393,66.2949673 L0.558839277,38.2747161 C0.216733442,38.1065426 2.27642404e-13,37.7584949 2.27373675e-13,37.377288 L2.27373675e-13,24.6309015 C2.26972973e-13,24.0786167 0.44771525,23.6309015 1,23.6309015 C1.15763496,23.6309015 1.31303706,23.6681676 1.45352796,23.7396594 L58.453528,52.7453533 C58.7888361,52.9159821 59,53.2603697 59,53.6365953 L59,65.3975392 C59,65.949824 58.5522847,66.3975392 58,66.3975392 C57.847037,66.3975392 57.6961126,66.3624486 57.5588393,66.2949673 Z"
                    id="left" stroke="#979797" fill="#B6B8C2"></path>
                <g id="left" transform="translate(0.000000, 23.000000)"></g>
                <g id="top" fill="#F2F2F3" stroke="#979797">
                    <path
                        d="M1.70844337,23.0681218 L43.5412861,0.250207555 C43.8286626,0.0934567401 44.1745638,0.0872819021 44.4673519,0.233675937 L102.211146,29.1055728 C102.705124,29.3525621 102.905348,29.9532351 102.658359,30.4472136 C102.561596,30.640741 102.404673,30.7976635 102.211146,30.8944272 L59.4396083,52.2801959 C59.1623741,52.4188129 58.8365328,52.421037 58.5574322,52.2862173 L1.75233304,24.846466 C1.25502902,24.6062428 1.04662378,24.0083589 1.28684691,23.5110549 C1.37768185,23.3230107 1.52510894,23.1681224 1.70844337,23.0681218 Z">
                    </path>
                </g>
            </g>
            <g id="cover" stroke="#979797">
                <path
                    d="M1.04229574,23.4314751 L43.0825723,0.500415111 C43.6573253,0.18691348 44.3491276,0.174563804 44.9347037,0.467351875 L102.894427,29.4472136 C103.571995,29.7859976 104,30.4785239 104,31.236068 L104,43.7515591 C104,44.5155399 103.564769,45.2127798 102.87842,45.5483279 L59.8807877,66.5693927 C59.3251791,66.8410236 58.6751596,66.8403327 58.1201297,66.5675214 L1.1177623,38.5494086 C0.433504739,38.2130786 9.81551315e-16,37.5169588 0,36.7545112 L0,25.1872662 C1.24263715e-15,24.4553778 0.399774118,23.7819414 1.04229574,23.4314751 Z"
                    id="Path-4"></path>
            </g>
        </g>
        <g id="base-1" transform="translate(45.000000, 15.000000)" stroke="#979797">
            <g id="isometric-box">
                <g id="right" transform="translate(60.000000, 30.000000)" fill="#DBDBDC">
                    <path
                        d="M1.4472136,29.2763932 L29.4472136,15.2763932 C29.7859976,15.1070012 30,14.7607381 30,14.381966 L30,1.61803399 C30,1.06574924 29.5522847,0.618033989 29,0.618033989 C28.8447549,0.618033989 28.6916418,0.654179081 28.5527864,0.723606798 L0.552786405,14.7236068 C0.214002376,14.8929988 -2.68430804e-16,15.2392619 0,15.618034 L0,28.381966 C2.73217063e-15,28.9342508 0.44771525,29.381966 1,29.381966 C1.1552451,29.381966 1.30835816,29.3458209 1.4472136,29.2763932 Z">
                    </path>
                </g>
                <g id="left" transform="translate(0.000000, 15.000000)" fill="#B6B8C2">
                    <path
                        d="M58.5527864,44.2763932 L0.552786405,15.2763932 C0.214002376,15.1070012 -1.75658406e-16,14.7607381 0,14.381966 L0,1.61803399 C3.76453835e-16,1.06574924 0.44771525,0.618033989 1,0.618033989 C1.1552451,0.618033989 1.30835816,0.654179081 1.4472136,0.723606798 L59.4472136,29.7236068 C59.7859976,29.8929988 60,30.2392619 60,30.618034 L60,43.381966 C60,43.9342508 59.5522847,44.381966 59,44.381966 C58.8447549,44.381966 58.6916418,44.3458209 58.5527864,44.2763932 Z">
                    </path>
                </g>
                <g id="top" fill="#F2F2F3">
                    <path
                        d="M1.78885438,14.1055728 L29.5527864,0.223606798 C29.8343139,0.0828430524 30.1656861,0.0828430524 30.4472136,0.223606798 L88.2111456,29.1055728 C88.7051241,29.3525621 88.9053485,29.9532351 88.6583592,30.4472136 C88.5615955,30.640741 88.404673,30.7976635 88.2111456,30.8944272 L60.4472136,44.7763932 C60.1656861,44.9171569 59.8343139,44.9171569 59.5527864,44.7763932 L1.78885438,15.8944272 C1.29487588,15.6474379 1.09465154,15.0467649 1.34164079,14.5527864 C1.43840449,14.359259 1.59532698,14.2023365 1.78885438,14.1055728 Z">
                    </path>
                </g>
            </g>
            <g id="cover">
                <path
                    d="M1.10557281,14.4472136 L29.1055728,0.447213595 C29.6686278,0.165686105 30.3313722,0.165686105 30.8944272,0.447213595 L88.8944272,29.4472136 C89.5719952,29.7859976 90,30.4785239 90,31.236068 L90,43.763932 C90,44.5214761 89.5719952,45.2140024 88.8944272,45.5527864 L60.8944272,59.5527864 C60.3313722,59.8343139 59.6686278,59.8343139 59.1055728,59.5527864 L1.10557281,30.5527864 C0.428004752,30.2140024 -3.51316812e-16,29.5214761 0,28.763932 L0,16.236068 C-5.36861608e-16,15.4785239 0.428004752,14.7859976 1.10557281,14.4472136 Z"
                    id="Path-4"></path>
            </g>
        </g>
    </g>
</svg>