<?xml version="1.0" encoding="UTF-8"?>
<svg width="150px" height="150px" viewBox="0 0 150 150" version="1.1" xmlns="http://www.w3.org/2000/svg" xmlns:xlink="http://www.w3.org/1999/xlink">
    <title>isometric-cube 8</title>
    <defs>
        <linearGradient x1="25.191215%" y1="50%" x2="100%" y2="50%" id="linearGradient-1">
            <stop stop-color="#B6B8C2" offset="0%"></stop>
            <stop stop-color="#DBDBDC" offset="100%"></stop>
        </linearGradient>
    </defs>
    <g id="isometric-cube-8" stroke="none" stroke-width="1" fill="none" fill-rule="evenodd">
        <polygon id="Path" stroke-opacity="0.5" stroke="#979797" stroke-width="0.5" stroke-linecap="round" points="-2.27682456e-14 37.5 75 5.27355937e-16 150 37.5 75 75"></polygon>
        <polygon id="Path" stroke-opacity="0.5" stroke="#979797" stroke-width="0.5" stroke-linecap="round" points="-2.27682456e-14 112.5 75 75 150 112.5 75 150"></polygon>
        <g id="base-3" transform="translate(15.000000, 60.000000)" stroke="#979797">
            <g id="isometric-box-copy-2">
                <g id="right" transform="translate(60.000000, 30.000000)" fill="#DBDBDC">
                    <path d="M1.4472136,44.2763932 L59.4472136,15.2763932 C59.7859976,15.1070012 60,14.7607381 60,14.381966 L60,1.61803399 C60,1.06574924 59.5522847,0.618033989 59,0.618033989 C58.8447549,0.618033989 58.6916418,0.654179081 58.5527864,0.723606798 L0.552786405,29.7236068 C0.214002376,29.8929988 6.19747616e-16,30.2392619 0,30.618034 L0,43.381966 C-1.15360995e-15,43.9342508 0.44771525,44.381966 1,44.381966 C1.1552451,44.381966 1.30835816,44.3458209 1.4472136,44.2763932 Z"></path>
                </g>
                <g id="left" transform="translate(0.000000, 30.000000)" fill="#B6B8C2">
                    <path d="M58.5527864,44.2763932 L0.552786405,15.2763932 C0.214002376,15.1070012 -1.75658406e-16,14.7607381 0,14.381966 L0,1.61803399 C3.76453835e-16,1.06574924 0.44771525,0.618033989 1,0.618033989 C1.1552451,0.618033989 1.30835816,0.654179081 1.4472136,0.723606798 L59.4472136,29.7236068 C59.7859976,29.8929988 60,30.2392619 60,30.618034 L60,43.381966 C60,43.9342508 59.5522847,44.381966 59,44.381966 C58.8447549,44.381966 58.6916418,44.3458209 58.5527864,44.2763932 Z"></path>
                </g>
                <g id="top" fill="#F2F2F3">
                    <path d="M1.78885438,29.1055728 L59.5527864,0.223606798 C59.8343139,0.0828430524 60.1656861,0.0828430524 60.4472136,0.223606798 L118.211146,29.1055728 C118.705124,29.3525621 118.905348,29.9532351 118.658359,30.4472136 C118.561596,30.640741 118.404673,30.7976635 118.211146,30.8944272 L60.4472136,59.7763932 C60.1656861,59.9171569 59.8343139,59.9171569 59.5527864,59.7763932 L1.78885438,30.8944272 C1.29487588,30.6474379 1.09465154,30.0467649 1.34164079,29.5527864 C1.43840449,29.359259 1.59532698,29.2023365 1.78885438,29.1055728 Z"></path>
                </g>
            </g>
            <g id="cover">
                <path d="M1.10557281,29.4472136 L59.1055728,0.447213595 C59.6686278,0.165686105 60.3313722,0.165686105 60.8944272,0.447213595 L118.894427,29.4472136 C119.571995,29.7859976 120,30.4785239 120,31.236068 L120,43.763932 C120,44.5214761 119.571995,45.2140024 118.894427,45.5527864 L60.8944272,74.5527864 C60.3313722,74.8343139 59.6686278,74.8343139 59.1055728,74.5527864 L1.10557281,45.5527864 C0.428004752,45.2140024 1.42504003e-15,44.5214761 0,43.763932 L0,31.236068 C3.51316812e-16,30.4785239 0.428004752,29.7859976 1.10557281,29.4472136 Z" id="Path-4"></path>
            </g>
        </g>
        <g id="cylinder" transform="translate(45.000000, 45.000000)" stroke="#979797" stroke-linejoin="round">
            <path d="M58.1699104,47.9775444 C52.5181726,55.9925148 43.1282024,60 30,60 C16.8717976,60 7.48182742,55.9925148 1.83008958,47.9775444 C0.638645763,46.2943151 0.000545033724,44.2826868 0,42.220459 L0,15.4577637 C-4.24642554e-05,15.1486407 0.0715707982,14.8437154 0.210111731,14.5673742 C5.0366883,4.8557914 14.9666511,1.13686838e-13 30,1.13686838e-13 C45.0333489,1.13686838e-13 54.9633117,4.8557914 59.7898883,14.5673742 C59.9284292,14.8437154 60.0000425,15.1486407 60,15.4577637 L60,42.220459 C59.999455,44.2826868 59.3613542,46.2943151 58.1699104,47.9775444 Z" id="Path-7" fill="url(#linearGradient-1)"></path>
            <path d="M30,0 C8.09863281,0 0,10.2488281 0,15 C0,19.7511719 8.09863281,30 30,30 C51.9013672,30 60,19.7511719 60,15 C60,10.2488281 51.9013672,0 30,0 Z" id="Path-8" fill="#F2F2F3"></path>
        </g>
        <g id="base-1" transform="translate(15.000000, 15.000000)" stroke="#979797">
            <g id="isometric-box">
                <g id="right" transform="translate(60.000000, 30.000000)" fill="#DBDBDC">
                    <path d="M1.4472136,44.2763932 L59.4472136,15.2763932 C59.7859976,15.1070012 60,14.7607381 60,14.381966 L60,1.61803399 C60,1.06574924 59.5522847,0.618033989 59,0.618033989 C58.8447549,0.618033989 58.6916418,0.654179081 58.5527864,0.723606798 L0.552786405,29.7236068 C0.214002376,29.8929988 6.19747616e-16,30.2392619 0,30.618034 L0,43.381966 C-1.15360995e-15,43.9342508 0.44771525,44.381966 1,44.381966 C1.1552451,44.381966 1.30835816,44.3458209 1.4472136,44.2763932 Z"></path>
                </g>
                <g id="left" transform="translate(0.000000, 30.000000)" fill="#B6B8C2">
                    <path d="M58.5527864,44.2763932 L0.552786405,15.2763932 C0.214002376,15.1070012 -1.75658406e-16,14.7607381 0,14.381966 L0,1.61803399 C3.76453835e-16,1.06574924 0.44771525,0.618033989 1,0.618033989 C1.1552451,0.618033989 1.30835816,0.654179081 1.4472136,0.723606798 L59.4472136,29.7236068 C59.7859976,29.8929988 60,30.2392619 60,30.618034 L60,43.381966 C60,43.9342508 59.5522847,44.381966 59,44.381966 C58.8447549,44.381966 58.6916418,44.3458209 58.5527864,44.2763932 Z"></path>
                </g>
                <g id="top" fill="#F2F2F3">
                    <path d="M1.78885438,29.1055728 L59.5527864,0.223606798 C59.8343139,0.0828430524 60.1656861,0.0828430524 60.4472136,0.223606798 L118.211146,29.1055728 C118.705124,29.3525621 118.905348,29.9532351 118.658359,30.4472136 C118.561596,30.640741 118.404673,30.7976635 118.211146,30.8944272 L60.4472136,59.7763932 C60.1656861,59.9171569 59.8343139,59.9171569 59.5527864,59.7763932 L1.78885438,30.8944272 C1.29487588,30.6474379 1.09465154,30.0467649 1.34164079,29.5527864 C1.43840449,29.359259 1.59532698,29.2023365 1.78885438,29.1055728 Z"></path>
                </g>
            </g>
            <g id="cover">
                <path d="M1.10557281,29.4472136 L59.1055728,0.447213595 C59.6686278,0.165686105 60.3313722,0.165686105 60.8944272,0.447213595 L118.894427,29.4472136 C119.571995,29.7859976 120,30.4785239 120,31.236068 L120,43.763932 C120,44.5214761 119.571995,45.2140024 118.894427,45.5527864 L60.8944272,74.5527864 C60.3313722,74.8343139 59.6686278,74.8343139 59.1055728,74.5527864 L1.10557281,45.5527864 C0.428004752,45.2140024 1.42504003e-15,44.5214761 0,43.763932 L0,31.236068 C3.51316812e-16,30.4785239 0.428004752,29.7859976 1.10557281,29.4472136 Z" id="Path-4"></path>
            </g>
        </g>
    </g>
</svg>